<?xml version="1.0" encoding="UTF-8" standalone="no"?>
<!DOCTYPE svg PUBLIC "-//W3C//DTD SVG 1.1//EN"
 "http://www.w3.org/Graphics/SVG/1.1/DTD/svg11.dtd">
<!-- Generated by graphviz version 2.38.0 (20140413.2041)
 -->
<!-- Title: wikip Pages: 1 -->
<svg width="206pt" height="235pt"
 viewBox="0.00 0.00 205.53 234.79" xmlns="http://www.w3.org/2000/svg" xmlns:xlink="http://www.w3.org/1999/xlink">
<g id="graph0" class="graph" transform="scale(1 1) rotate(0) translate(4 230.794)">
<title>wikip</title>
<polygon fill="white" stroke="none" points="-4,4 -4,-230.794 201.527,-230.794 201.527,4 -4,4"/>
<!-- 2.1 -->
<g id="node1" class="node"><title>2.1</title>
<ellipse fill="none" stroke="brown" cx="126.263" cy="-211.945" rx="16.9412" ry="14.7"/>
<text text-anchor="middle" x="126.263" y="-208.845" font-family="bold" font-size="12.00" fill="green">2</text>
</g>
<!-- 7 -->
<g id="node2" class="node"><title>7</title>
<ellipse fill="none" stroke="black" cx="86.2635" cy="-146.246" rx="16.0303" ry="14.7"/>
<text text-anchor="middle" x="86.2635" y="-143.146" font-family="Times New Roman,serif" font-size="12.00">7</text>
</g>
<!-- 2.1&#45;&gt;7 -->
<g id="edge1" class="edge"><title>2.1&#45;&gt;7</title>
<path fill="none" stroke="black" d="M118.551,-198.663C113.128,-190.027 105.737,-178.257 99.3951,-168.158"/>
<polygon fill="black" stroke="black" points="102.234,-166.098 93.9522,-159.49 96.3062,-169.82 102.234,-166.098"/>
</g>
<!-- 5.2 -->
<g id="node8" class="node"><title>5.2</title>
<ellipse fill="none" stroke="black" cx="166.263" cy="-146.246" rx="16.0303" ry="14.7"/>
<text text-anchor="middle" x="166.263" y="-143.146" font-family="Times New Roman,serif" font-size="12.00">5</text>
</g>
<!-- 2.1&#45;&gt;5.2 -->
<g id="edge7" class="edge"><title>2.1&#45;&gt;5.2</title>
<path fill="none" stroke="black" d="M133.976,-198.663C139.399,-190.027 146.79,-178.257 153.132,-168.158"/>
<polygon fill="black" stroke="black" points="156.221,-169.82 158.575,-159.49 150.293,-166.098 156.221,-169.82"/>
</g>
<!-- 2.2 -->
<g id="node3" class="node"><title>2.2</title>
<ellipse fill="none" stroke="black" cx="16.2635" cy="-80.5477" rx="16.0303" ry="14.7"/>
<text text-anchor="middle" x="16.2635" y="-77.4477" font-family="Times New Roman,serif" font-size="12.00">2</text>
</g>
<!-- 7&#45;&gt;2.2 -->
<g id="edge2" class="edge"><title>7&#45;&gt;2.2</title>
<path fill="none" stroke="black" d="M75.0167,-135.012C64.2378,-125.203 47.7678,-110.216 35.0056,-98.6026"/>
<polygon fill="black" stroke="black" points="37.0032,-95.6883 27.2515,-91.5466 32.292,-100.866 37.0032,-95.6883"/>
</g>
<!-- 10 -->
<g id="node4" class="node"><title>10</title>
<ellipse fill="none" stroke="black" cx="71.2635" cy="-80.5477" rx="20.5122" ry="14.7"/>
<text text-anchor="middle" x="71.2635" y="-77.4477" font-family="Times New Roman,serif" font-size="12.00">10</text>
</g>
<!-- 7&#45;&gt;10 -->
<g id="edge3" class="edge"><title>7&#45;&gt;10</title>
<path fill="none" stroke="black" d="M83.0087,-131.425C81.2003,-123.745 78.901,-113.981 76.817,-105.131"/>
<polygon fill="black" stroke="black" points="80.2109,-104.274 74.5119,-95.3424 73.3973,-105.878 80.2109,-104.274"/>
</g>
<!-- 6 -->
<g id="node5" class="node"><title>6</title>
<ellipse fill="none" stroke="black" cx="126.263" cy="-80.5477" rx="16.0303" ry="14.7"/>
<text text-anchor="middle" x="126.263" y="-77.4477" font-family="Times New Roman,serif" font-size="12.00">6</text>
</g>
<!-- 7&#45;&gt;6 -->
<g id="edge4" class="edge"><title>7&#45;&gt;6</title>
<path fill="none" stroke="black" d="M93.9759,-132.965C99.3989,-124.329 106.79,-112.559 113.132,-102.459"/>
<polygon fill="black" stroke="black" points="116.221,-104.122 118.575,-93.7917 110.293,-100.399 116.221,-104.122"/>
</g>
<!-- 5.1 -->
<g id="node6" class="node"><title>5.1</title>
<ellipse fill="none" stroke="black" cx="71.2635" cy="-14.8492" rx="16.0303" ry="14.7"/>
<text text-anchor="middle" x="71.2635" y="-11.7492" font-family="Times New Roman,serif" font-size="12.00">5</text>
</g>
<!-- 6&#45;&gt;5.1 -->
<g id="edge5" class="edge"><title>6&#45;&gt;5.1</title>
<path fill="none" stroke="black" d="M116.683,-68.4523C108.737,-59.2493 97.255,-45.9515 87.824,-35.0289"/>
<polygon fill="black" stroke="black" points="90.2888,-32.528 81.1043,-27.2464 84.9905,-37.1028 90.2888,-32.528"/>
</g>
<!-- 11 -->
<g id="node7" class="node"><title>11</title>
<ellipse fill="none" stroke="black" cx="126.263" cy="-14.8492" rx="20.5122" ry="14.7"/>
<text text-anchor="middle" x="126.263" y="-11.7492" font-family="Times New Roman,serif" font-size="12.00">11</text>
</g>
<!-- 6&#45;&gt;11 -->
<g id="edge6" class="edge"><title>6&#45;&gt;11</title>
<path fill="none" stroke="black" d="M126.263,-65.411C126.263,-57.9888 126.263,-48.685 126.263,-40.1488"/>
<polygon fill="black" stroke="black" points="129.764,-39.9464 126.263,-29.9465 122.764,-39.9465 129.764,-39.9464"/>
</g>
<!-- 9 -->
<g id="node9" class="node"><title>9</title>
<ellipse fill="none" stroke="black" cx="179.263" cy="-80.5477" rx="16.0303" ry="14.7"/>
<text text-anchor="middle" x="179.263" y="-77.4477" font-family="Times New Roman,serif" font-size="12.00">9</text>
</g>
<!-- 5.2&#45;&gt;9 -->
<g id="edge8" class="edge"><title>5.2&#45;&gt;9</title>
<path fill="none" stroke="black" d="M169.084,-131.425C170.634,-123.829 172.601,-114.193 174.391,-105.42"/>
<polygon fill="black" stroke="black" points="177.878,-105.84 176.448,-95.3424 171.019,-104.441 177.878,-105.84"/>
</g>
<!-- 4 -->
<g id="node10" class="node"><title>4</title>
<ellipse fill="none" stroke="black" cx="181.263" cy="-14.8492" rx="16.0303" ry="14.7"/>
<text text-anchor="middle" x="181.263" y="-11.7492" font-family="Times New Roman,serif" font-size="12.00">4</text>
</g>
<!-- 9&#45;&gt;4 -->
<g id="edge9" class="edge"><title>9&#45;&gt;4</title>
<path fill="none" stroke="black" d="M179.707,-65.411C179.94,-57.9888 180.232,-48.685 180.5,-40.1488"/>
<polygon fill="black" stroke="black" points="184.005,-40.0514 180.821,-29.9465 177.009,-39.8317 184.005,-40.0514"/>
</g>
</g>
</svg>
